<svg xmlns="http://www.w3.org/2000/svg" xmlns:xlink="http://www.w3.org/1999/xlink" width="550.057" height="550.144" viewBox="0 0 550.057 550.144">
  <defs>
    <clipPath id="clip-path">
      <path id="Path_1407" data-name="Path 1407" d="M.45,0H550.507V369.187c0,99.811-81.058,180.957-180.957,180.957H.45V0Z" transform="translate(-0.45)" fill="none"/>
    </clipPath>
  </defs>
  <g id="growth" transform="translate(-3.943)">
    <g id="b">
      <g id="c">
        <g id="Group_1206" data-name="Group 1206">
          <g id="Group_1177" data-name="Group 1177" transform="translate(52.719 350.708) rotate(-3)">
            <g id="Group_1174" data-name="Group 1174" transform="translate(3.298 3.753)">
              <path id="Path_1338" data-name="Path 1338" d="M13.206,114.924a7.465,7.465,0,0,1-5.686-8.983c8.983-41.278,57.653-71.3,98.93-62.2a7.518,7.518,0,0,1-3.3,14.669c-33.2-7.278-73.914,17.626-81.077,50.83a7.465,7.465,0,0,1-8.983,5.686Z" transform="translate(-7.334 -42.106)" fill="#fff" stroke="#000" stroke-width="4"/>
            </g>
            <g id="Group_1175" data-name="Group 1175" transform="translate(6.368 6.482)">
              <path id="Path_1339" data-name="Path 1339" d="M13.476,115.164a7.465,7.465,0,0,1-5.686-8.983c8.983-41.278,57.653-71.3,99.044-62.2a7.518,7.518,0,0,1-3.3,14.669c-33.2-7.278-73.914,17.512-81.077,50.716a7.465,7.465,0,0,1-8.983,5.686Z" transform="translate(-7.604 -42.346)" fill="#00b6ff" stroke="#000" stroke-width="4"/>
            </g>
            <g id="Group_1176" data-name="Group 1176">
              <path id="Path_1340" data-name="Path 1340" d="M12.916,114.481a7.4,7.4,0,0,1-5.686-8.87c8.983-41.278,57.653-71.3,98.93-62.2a7.518,7.518,0,0,1-3.3,14.669c-33.2-7.278-73.914,17.512-81.077,50.83a7.465,7.465,0,0,1-8.983,5.686Z" transform="translate(-7.044 -41.776)" fill="#00f4fd" stroke="#000" stroke-width="4"/>
            </g>
          </g>
          <g id="Group_1181" data-name="Group 1181" transform="translate(138.258 267.034) rotate(-3)">
            <g id="Group_1178" data-name="Group 1178" transform="translate(4.456 5.219)">
              <path id="Path_1341" data-name="Path 1341" d="M26.825,120.91a9.915,9.915,0,0,1-7.585-11.852,101.6,101.6,0,0,1,120.8-77.466,9.95,9.95,0,1,1-4.267,19.438,81.819,81.819,0,0,0-97.188,62.3A9.915,9.915,0,0,1,26.73,120.91Z" transform="translate(-19.016 -29.242)" fill="#fff" stroke="#000" stroke-width="4"/>
            </g>
            <g id="Group_1179" data-name="Group 1179" transform="translate(8.439 8.723)">
              <path id="Path_1342" data-name="Path 1342" d="M27.245,121.284a9.915,9.915,0,0,1-7.585-11.852,101.526,101.526,0,0,1,120.8-77.466A9.95,9.95,0,0,1,136.19,51.4,81.676,81.676,0,0,0,39.1,113.7,9.915,9.915,0,0,1,27.245,121.284Z" transform="translate(-19.436 -29.612)" fill="#00b6ff" stroke="#000" stroke-width="4"/>
            </g>
            <g id="Group_1180" data-name="Group 1180">
              <path id="Path_1343" data-name="Path 1343" d="M26.355,120.364a9.915,9.915,0,0,1-7.585-11.852,101.526,101.526,0,0,1,120.8-77.466A9.95,9.95,0,0,1,135.3,50.483a81.676,81.676,0,0,0-97.093,62.3A9.915,9.915,0,0,1,26.355,120.364Z" transform="translate(-18.546 -28.692)" fill="#00f4fd" stroke="#000" stroke-width="4"/>
            </g>
          </g>
          <g id="Group_1185" data-name="Group 1185" transform="translate(240.339 156.671) rotate(-3)">
            <g id="Group_1182" data-name="Group 1182" transform="translate(6.024 6.802)">
              <path id="Path_1344" data-name="Path 1344" d="M43.955,139.284a13.175,13.175,0,0,1-10.2-15.546C48.814,51.252,119.939,4.613,192.327,19.576a13.149,13.149,0,0,1-5.344,25.749A108.051,108.051,0,0,0,59.4,129.081a13.175,13.175,0,0,1-15.546,10.2Z" transform="translate(-33.482 -16.782)" fill="#fff" stroke="#000" stroke-width="4"/>
            </g>
            <g id="Group_1183" data-name="Group 1183" transform="translate(11.368 11.368)">
              <path id="Path_1345" data-name="Path 1345" d="M44.505,139.754a13.175,13.175,0,0,1-10.2-15.546C49.364,51.722,120.489,5.083,192.877,20.046a13.149,13.149,0,1,1-5.344,25.749A108.051,108.051,0,0,0,59.955,129.551a13.175,13.175,0,0,1-15.546,10.2Z" transform="translate(-34.032 -17.252)" fill="#00b6ff" stroke="#000" stroke-width="4"/>
            </g>
            <g id="Group_1184" data-name="Group 1184">
              <path id="Path_1346" data-name="Path 1346" d="M43.335,138.584a13.175,13.175,0,0,1-10.2-15.546C48.1,50.552,119.319,3.913,191.707,18.876a13.149,13.149,0,1,1-5.344,25.749A108.051,108.051,0,0,0,58.785,128.381a13.175,13.175,0,0,1-15.546,10.2Z" transform="translate(-32.862 -16.082)" fill="#00f4fd" stroke="#000" stroke-width="4"/>
            </g>
          </g>
          <g id="Group_1203" data-name="Group 1203" transform="translate(3.943)" clip-path="url(#clip-path)">
            <g id="Group_1202" data-name="Group 1202" transform="translate(0 244.577)">
              <g id="Group_1195" data-name="Group 1195" transform="translate(305.655 183.323)">
                <rect id="Rectangle_426" data-name="Rectangle 426" width="61.078" height="61.078" transform="translate(0 61.078)" fill="#00b6ff" stroke="#000" stroke-width="4"/>
                <rect id="Rectangle_427" data-name="Rectangle 427" width="61.078" height="61.078" transform="translate(61.078 61.078)" fill="#00b6ff" stroke="#000" stroke-width="4"/>
                <rect id="Rectangle_428" data-name="Rectangle 428" width="61.078" height="61.078" transform="translate(61.078)" fill="#00b6ff" stroke="#000" stroke-width="4"/>
                <rect id="Rectangle_429" data-name="Rectangle 429" width="61.078" height="61.078" transform="translate(122.157 61.078)" fill="#00b6ff" stroke="#000" stroke-width="4"/>
              </g>
              <g id="Group_1196" data-name="Group 1196" transform="translate(305.48 0)">
                <rect id="Rectangle_430" data-name="Rectangle 430" width="61.078" height="61.078" transform="translate(61.166 183.323) rotate(-90)" fill="#fdda00" stroke="#000" stroke-width="4"/>
                <rect id="Rectangle_431" data-name="Rectangle 431" width="61.078" height="61.078" transform="translate(61.166 122.157) rotate(-90)" fill="#fdda00" stroke="#000" stroke-width="4"/>
                <rect id="Rectangle_432" data-name="Rectangle 432" width="61.078" height="61.078" transform="translate(0 122.157) rotate(-90)" fill="#fdda00" stroke="#000" stroke-width="4"/>
                <rect id="Rectangle_433" data-name="Rectangle 433" width="61.078" height="61.078" transform="translate(61.166 61.078) rotate(-90)" fill="#fdda00" stroke="#000" stroke-width="4"/>
              </g>
              <g id="Group_1197" data-name="Group 1197" transform="translate(61.078 244.401)">
                <rect id="Rectangle_434" data-name="Rectangle 434" width="61.078" height="61.078" fill="#00f4fd" stroke="#000" stroke-width="4"/>
                <rect id="Rectangle_435" data-name="Rectangle 435" width="61.078" height="61.078" transform="translate(61.078)" fill="#00f4fd" stroke="#000" stroke-width="4"/>
                <rect id="Rectangle_436" data-name="Rectangle 436" width="61.078" height="61.078" transform="translate(122.245)" fill="#00f4fd" stroke="#000" stroke-width="4"/>
              </g>
              <rect id="Rectangle_437" data-name="Rectangle 437" width="61.078" height="61.078" transform="translate(0 244.401)" fill="#00f4fd" stroke="#000" stroke-width="4"/>
              <rect id="Rectangle_438" data-name="Rectangle 438" width="61.078" height="61.078" transform="translate(488.978 244.401)" fill="#2267b9" stroke="#000" stroke-width="4"/>
              <g id="Group_1198" data-name="Group 1198" transform="translate(427.812 122.245)">
                <rect id="Rectangle_439" data-name="Rectangle 439" width="61.078" height="61.078" transform="translate(61.166 61.078)" fill="#00b6ff" stroke="#000" stroke-width="4"/>
                <rect id="Rectangle_440" data-name="Rectangle 440" width="61.078" height="61.078" transform="translate(0 61.078)" fill="#00b6ff" stroke="#000" stroke-width="4"/>
                <rect id="Rectangle_441" data-name="Rectangle 441" width="61.078" height="61.078" transform="translate(61.166)" fill="#00b6ff" stroke="#000" stroke-width="4"/>
                <rect id="Rectangle_442" data-name="Rectangle 442" width="61.078" height="61.078" fill="#00b6ff" stroke="#000" stroke-width="4"/>
              </g>
              <g id="Group_1199" data-name="Group 1199" transform="translate(427.812 0)">
                <rect id="Rectangle_443" data-name="Rectangle 443" width="61.078" height="61.078" transform="translate(61.166 61.078)" fill="#fdda00" stroke="#000" stroke-width="4"/>
                <rect id="Rectangle_444" data-name="Rectangle 444" width="61.078" height="61.078" transform="translate(0 61.078)" fill="#fdda00" stroke="#000" stroke-width="4"/>
                <rect id="Rectangle_445" data-name="Rectangle 445" width="61.078" height="61.078" transform="translate(61.166)" fill="#fdda00" stroke="#000" stroke-width="4"/>
                <rect id="Rectangle_446" data-name="Rectangle 446" width="61.078" height="61.078" fill="#fdda00" stroke="#000" stroke-width="4"/>
              </g>
              <g id="Group_1200" data-name="Group 1200" transform="translate(122.157 183.323)">
                <rect id="Rectangle_447" data-name="Rectangle 447" width="61.078" height="61.078" fill="#00b6ff" stroke="#000" stroke-width="4"/>
                <rect id="Rectangle_448" data-name="Rectangle 448" width="61.078" height="61.078" transform="translate(61.166)" fill="#00b6ff" stroke="#000" stroke-width="4"/>
                <rect id="Rectangle_449" data-name="Rectangle 449" width="61.078" height="61.078" transform="translate(122.245)" fill="#00b6ff" stroke="#000" stroke-width="4"/>
                <rect id="Rectangle_450" data-name="Rectangle 450" width="61.078" height="61.078" transform="translate(122.245 61.078)" fill="#00b6ff" stroke="#000" stroke-width="4"/>
              </g>
              <g id="Group_1201" data-name="Group 1201" transform="translate(244.401 61.078)">
                <rect id="Rectangle_451" data-name="Rectangle 451" width="61.078" height="61.078" transform="translate(61.166) rotate(90)" fill="#00f4fd" stroke="#000" stroke-width="4"/>
                <rect id="Rectangle_452" data-name="Rectangle 452" width="61.078" height="61.078" transform="translate(122.245 122.245) rotate(90)" fill="#00f4fd" stroke="#000" stroke-width="4"/>
                <rect id="Rectangle_453" data-name="Rectangle 453" width="61.078" height="61.078" transform="translate(61.078 61.078) rotate(90)" fill="#00f4fd" stroke="#000" stroke-width="4"/>
                <rect id="Rectangle_454" data-name="Rectangle 454" width="61.078" height="61.078" transform="translate(122.157 61.166) rotate(90)" fill="#00f4fd" stroke="#000" stroke-width="4"/>
              </g>
            </g>
          </g>
          <g id="Group_1205" data-name="Group 1205" transform="translate(358.71 57.573)">
            <g id="Group_1204" data-name="Group 1204">
              <path id="Path_1966" data-name="Path 1966" d="M55.631,51.468,81.394,47.7,89.719,42c1.139-.175,3.418-3.505,3.943-4.557l3.68-7.361C99.358,25.967,110.312,9.58,114.869,9.58a8.932,8.932,0,0,1,11.742,1.314c2.191,1.139,8.675,12.356,9.815,14.722l7.186,14.547c.526,1.052,2.541,3.943,3.68,4.119l4.907,3.067,28.042,4.031a15.447,15.447,0,0,1,8.588,26.289L169.463,96.6l-2.892,7.361c-.789.789-.7,4.732-.526,5.871l2.015,11.918c.613,3.505,1.84,19.98-.438,22.7a10.072,10.072,0,0,1-10.866,7.449c-1.052.351-5.345-1.227-6.485-1.227-1.928,0-9.464-3.418-11.217-4.382l-16.737-8.763c-.964-.526-4.995-2.015-6.046-1.49L95.064,147.16c-1.753.876-8.5,3.943-10.428,3.943-.876,0-4.031,1.139-4.907.964a10.677,10.677,0,0,1-11.567-7.624c-2.278-2.717-1.052-19.016-.438-22.521l2.1-12.444c.175-1.139.263-4.995-.526-5.784l-2.8-6.923L46.955,77.757a15.392,15.392,0,0,1,8.5-26.289Z" transform="translate(-30.518 4.178)" stroke="#00011c" stroke-width="4"/>
              <path id="Path_1418" data-name="Path 1418" d="M54.5,51.626l25.676-3.68,8.588-5.083c1.227-.175,3.505-3.242,4.031-4.382l3.593-7.361C98.143,27.615,109.272,10,113.128,10c3.067-2.892,8.763-2.454,11.655,1.139,1.928.964,8.588,12.969,9.639,14.985L141.7,40.76c.526,1.139,2.541,3.768,3.856,3.943l5.17,2.8,28.129,4.119a14.047,14.047,0,0,1,7.8,24.011L167.284,94.477l-3.418,7.186c-.876.876-.876,4.557-.7,5.784l2.016,11.918c.526,2.979,2.191,20.418.263,22.784a9.207,9.207,0,0,1-10.6,7.273c-.876.263-5.433-1.49-6.4-1.49-1.665,0-9.552-3.68-11.041-4.469L120.839,134.7c-1.139-.613-4.82-1.84-5.959-1.227L94.112,144.427c-1.49.789-8.588,4.031-10.165,4.031-.789,0-4.031,1.227-4.82,1.139a9.821,9.821,0,0,1-11.217-7.449c-1.928-2.278-.351-19.542.175-22.521l2.1-12.444c.175-1.227.175-4.907-.7-5.784l-3.242-6.748L46.7,75.637a14.147,14.147,0,0,1-3.593-14.459A13.991,13.991,0,0,1,54.5,51.626Z" transform="translate(-29.216 5.334)" fill="#fdda00"/>
            </g>
          </g>
        </g>
      </g>
    </g>
  </g>
</svg>
