<svg xmlns="http://www.w3.org/2000/svg" viewBox="0 0 152.98 57.84"><defs><style>.cls-1{fill:#fff;}.cls-2{fill:#dd1438;}</style></defs><g id="Layer_2" data-name="Layer 2"><g id="Layer_1-2" data-name="Layer 1"><path class="cls-1" d="M66,28.61a8.93,8.93,0,0,1-3-1.4l1.31-2.9a8.93,8.93,0,0,0,2.55,1.26,9.49,9.49,0,0,0,3,.48,4.75,4.75,0,0,0,2.43-.49,1.48,1.48,0,0,0,.79-1.3,1.23,1.23,0,0,0-.46-1,3.57,3.57,0,0,0-1.2-.63c-.48-.16-1.14-.33-2-.52a29.25,29.25,0,0,1-3.12-.91,5.13,5.13,0,0,1-2.09-1.45,3.94,3.94,0,0,1-.87-2.67,4.65,4.65,0,0,1,.79-2.63,5.23,5.23,0,0,1,2.37-1.88,9.71,9.71,0,0,1,3.87-.69,12.94,12.94,0,0,1,3.12.38,9.23,9.23,0,0,1,2.67,1.1L74.94,16.3A9.33,9.33,0,0,0,70.32,15a4.45,4.45,0,0,0-2.4.52,1.63,1.63,0,0,0-.77,1.39A1.35,1.35,0,0,0,68,18.17a14.1,14.1,0,0,0,2.73.82,29.25,29.25,0,0,1,3.12.91A5.18,5.18,0,0,1,76,21.33,3.82,3.82,0,0,1,76.85,24a4.54,4.54,0,0,1-.8,2.61,5.31,5.31,0,0,1-2.4,1.87,9.72,9.72,0,0,1-3.88.69A13.51,13.51,0,0,1,66,28.61Z"/><path class="cls-1" d="M82.37,27.17a7.6,7.6,0,0,1-2-5.65V12.18h3.86v9.2c0,3,1.24,4.48,3.72,4.48a3.49,3.49,0,0,0,2.76-1.09,5,5,0,0,0,1-3.39v-9.2h3.82v9.34a7.64,7.64,0,0,1-2,5.65,7.55,7.55,0,0,1-5.57,2A7.54,7.54,0,0,1,82.37,27.17Z"/><path class="cls-1" d="M110.08,12.92A5.66,5.66,0,0,1,112.59,15a5.78,5.78,0,0,1,.88,3.22,5.81,5.81,0,0,1-.88,3.21,5.53,5.53,0,0,1-2.51,2.09,9.31,9.31,0,0,1-3.85.73h-3.36v4.6H99V12.18h7.22A9.31,9.31,0,0,1,110.08,12.92Zm-1.42,7.44a2.59,2.59,0,0,0,.91-2.13,2.61,2.61,0,0,0-.91-2.15,4,4,0,0,0-2.64-.76h-3.15v5.79H106A4,4,0,0,0,108.66,20.36Z"/><path class="cls-1" d="M127.82,28.86l-3.22-4.65h-3.55v4.65h-3.86V12.18h7.22a9.31,9.31,0,0,1,3.85.74A5.66,5.66,0,0,1,130.77,15a5.78,5.78,0,0,1,.88,3.22,5.42,5.42,0,0,1-3.43,5.27L132,28.86Zm-1-12.78a4,4,0,0,0-2.64-.76h-3.15v5.82h3.15a4,4,0,0,0,2.64-.76,2.65,2.65,0,0,0,.91-2.15A2.61,2.61,0,0,0,126.84,16.08Z"/><path class="cls-1" d="M147.45,25.28h-7.74l-1.48,3.58h-3.95l7.43-16.68h3.81L153,28.86h-4Zm-1.21-2.93L143.59,16,141,22.35Z"/><path class="cls-1" d="M66.21,45.13a6,6,0,0,1-2.37-2.24,6.44,6.44,0,0,1,0-6.43,6,6,0,0,1,2.37-2.24,7.54,7.54,0,0,1,6.8,0,6.18,6.18,0,0,1,0,10.91,7.54,7.54,0,0,1-6.8,0Zm5.34-2.07a3.58,3.58,0,0,0,1.36-1.37,4.37,4.37,0,0,0,0-4,3.54,3.54,0,0,0-1.36-1.38,4.09,4.09,0,0,0-3.88,0,3.54,3.54,0,0,0-1.36,1.38,4.37,4.37,0,0,0,0,4,3.58,3.58,0,0,0,1.36,1.37,4,4,0,0,0,3.88,0Z"/><path class="cls-1" d="M86.88,45.74l-2.34-3.38H82v3.38h-2.8V33.62h5.25a6.68,6.68,0,0,1,2.79.53A4.2,4.2,0,0,1,89,35.68a4.16,4.16,0,0,1-1.85,6.16l2.72,3.9Zm-.71-9.29a2.91,2.91,0,0,0-1.92-.55H82v4.23h2.29a2.91,2.91,0,0,0,1.92-.56A1.93,1.93,0,0,0,86.83,38,1.9,1.9,0,0,0,86.17,36.45Z"/><path class="cls-1" d="M101.18,43.14H95.55l-1.07,2.6H91.6L97,33.62h2.77l5.42,12.12h-3ZM100.29,41l-1.92-4.64L96.45,41Z"/><path class="cls-1" d="M109.21,45.14a6,6,0,0,1-2.36-2.23,6.5,6.5,0,0,1,0-6.46,6,6,0,0,1,2.36-2.24,7.55,7.55,0,0,1,6.21-.25,5.67,5.67,0,0,1,2.14,1.6l-1.8,1.66a3.86,3.86,0,0,0-3.05-1.42,4,4,0,0,0-2,.49,3.56,3.56,0,0,0-1.37,1.38,4.29,4.29,0,0,0,0,4,3.61,3.61,0,0,0,1.37,1.37,4,4,0,0,0,2,.5,3.84,3.84,0,0,0,3.05-1.44l1.8,1.66a5.65,5.65,0,0,1-2.15,1.61,7.07,7.07,0,0,1-2.85.55A6.91,6.91,0,0,1,109.21,45.14Z"/><path class="cls-1" d="M120.15,33.62H123v9.83H129v2.29h-8.88Z"/><path class="cls-1" d="M140.71,43.49v2.25h-9.39V33.62h9.16v2.25h-6.37V38.5h5.63v2.18h-5.63v2.81Z"/><path class="cls-1" d="M145.06,45.55a6.2,6.2,0,0,1-2.16-1l.95-2.11a6.46,6.46,0,0,0,1.86.92,6.93,6.93,0,0,0,2.14.34,3.41,3.41,0,0,0,1.77-.35,1.08,1.08,0,0,0,.57-1,.88.88,0,0,0-.34-.71,2.42,2.42,0,0,0-.86-.46c-.35-.12-.83-.24-1.43-.38a20,20,0,0,1-2.27-.66,3.62,3.62,0,0,1-1.51-1.06,2.85,2.85,0,0,1-.64-1.94,3.38,3.38,0,0,1,.58-1.91,3.86,3.86,0,0,1,1.72-1.36,7.1,7.1,0,0,1,2.81-.5,9,9,0,0,1,2.27.28,6.68,6.68,0,0,1,1.94.79l-.87,2.13a6.77,6.77,0,0,0-3.35-1,3.16,3.16,0,0,0-1.74.38,1.15,1.15,0,0,0-.57,1,1,1,0,0,0,.65.93,10.69,10.69,0,0,0,2,.6,19.43,19.43,0,0,1,2.27.66,3.7,3.7,0,0,1,1.52,1,2.78,2.78,0,0,1,.63,1.92,3.27,3.27,0,0,1-.58,1.89,3.91,3.91,0,0,1-1.74,1.36,7,7,0,0,1-2.82.5A9.88,9.88,0,0,1,145.06,45.55Z"/><circle class="cls-1" cx="28.92" cy="28.92" r="28.92"/><path class="cls-2" d="M45.32,14.82a13.87,13.87,0,0,0-3.16-4.62,15.53,15.53,0,0,0-4.7-3,13.58,13.58,0,0,0-3.68-.9A14.23,14.23,0,0,0,18.32,24.87v.07a14.48,14.48,0,0,0-2.88,2.33A15,15,0,0,0,12.36,32a15.23,15.23,0,0,0-1,5.55,14.36,14.36,0,0,0,4.32,10.08,15.34,15.34,0,0,0,4.7,3,14.12,14.12,0,0,0,5,1h.25A14.27,14.27,0,0,0,39.34,33a14.41,14.41,0,0,0,3-2.44,14.62,14.62,0,0,0,3.09-4.77,15,15,0,0,0,1-5.55A13.59,13.59,0,0,0,45.32,14.82ZM32.7,14.48a6.67,6.67,0,0,1,1.51.43A4.91,4.91,0,0,1,36,16.2a6.08,6.08,0,0,1,1.08,1.86,6.31,6.31,0,0,1,.31,2.09,5.39,5.39,0,0,1-1.58,3.48l-2.95-7.79A6.28,6.28,0,0,1,32.7,14.48Zm3.51,10.27a3.19,3.19,0,0,0,.26-.26,6.07,6.07,0,0,0,1.3-2.08,6.38,6.38,0,0,0,.38-2.4,5.49,5.49,0,0,0-.54-2.31,6.58,6.58,0,0,0-1.38-1.85,6,6,0,0,0-1.93-1.17,5.66,5.66,0,0,0-1.6-.29,5.84,5.84,0,0,1,.68-2.59,7.42,7.42,0,0,1,1.82.58,8.78,8.78,0,0,1,2.68,1.92,10.27,10.27,0,0,1,1.71,2.78,8.84,8.84,0,0,1,.53,3.15,6.77,6.77,0,0,1-.69,3.09,6.78,6.78,0,0,1-1.77,2.54,10,10,0,0,1-.8.62Zm1,2.77a10.61,10.61,0,0,0,1.14-1,9.38,9.38,0,0,0,2.48-6.47,8.53,8.53,0,0,0-.76-3.38,8.22,8.22,0,0,0-2-2.78,8.59,8.59,0,0,0-2.84-1.77,9.38,9.38,0,0,0-1.87-.43,5.82,5.82,0,0,1,1-1.36,6,6,0,0,1,1-.81,7.76,7.76,0,0,1,.84.34,10.42,10.42,0,0,1,3.54,2.46A11.28,11.28,0,0,1,42.14,16a11.68,11.68,0,0,1,.76,4.23A12.3,12.3,0,0,1,42,24.38a11.46,11.46,0,0,1-2.39,3.38,10.14,10.14,0,0,1-1.72,1.37Zm-15,20.74c-.23-.09-.46-.17-.68-.28A10.11,10.11,0,0,1,18,45.52a11.28,11.28,0,0,1-2.31-3.63,11.64,11.64,0,0,1-.76-4.23,12.25,12.25,0,0,1,.92-4.16,11.15,11.15,0,0,1,2.39-3.38,10.13,10.13,0,0,1,1.58-1.29l.62,1.62a9.36,9.36,0,0,0-1,.88A9.45,9.45,0,0,0,17,37.8a8.58,8.58,0,0,0,.77,3.38,8.19,8.19,0,0,0,2,2.77,8.43,8.43,0,0,0,2.84,1.77,9.08,9.08,0,0,0,1.69.42,6.08,6.08,0,0,1-1,1.3A6.25,6.25,0,0,1,22.22,48.26Zm.42-2.76A9,9,0,0,1,20,43.57a10.34,10.34,0,0,1-1.7-2.77,8.86,8.86,0,0,1-.53-3.16,6.8,6.8,0,0,1,.69-3.09A6.67,6.67,0,0,1,20.18,32a7.18,7.18,0,0,1,.67-.54l.67,1.75a1.14,1.14,0,0,0-.15.16,5.89,5.89,0,0,0-1.3,2.08,6.29,6.29,0,0,0-.38,2.39,5.6,5.6,0,0,0,.53,2.31A6.81,6.81,0,0,0,21.61,42a5.75,5.75,0,0,0,1.93,1.16,5.11,5.11,0,0,0,1.46.28,6.11,6.11,0,0,1-.71,2.58A8,8,0,0,1,22.64,45.5ZM25,43.38A7.43,7.43,0,0,1,23.63,43a4.82,4.82,0,0,1-1.77-1.3,6,6,0,0,1-1.08-1.86,6.25,6.25,0,0,1-.31-2.08A5.37,5.37,0,0,1,22,34.35L24.89,42A6.29,6.29,0,0,1,25,43.38Zm-11.92-.5a15.37,15.37,0,0,1-.92-5.24,14.87,14.87,0,0,1,1.17-5.15,13.74,13.74,0,0,1,3-4.32,12.75,12.75,0,0,1,2.51-1.92l.47,1.23a10.52,10.52,0,0,0-2,1.65,11.65,11.65,0,0,0-2.46,3.92,13,13,0,0,0-.76,4.54,12.61,12.61,0,0,0,1,4.46,11.63,11.63,0,0,0,2.62,3.7,11.92,11.92,0,0,0,3.76,2.39,5.8,5.8,0,0,0,.59.19,6.25,6.25,0,0,1-3,.89,4.8,4.8,0,0,1-1.14-.13A13.94,13.94,0,0,1,16,47.42,13.37,13.37,0,0,1,13.08,42.88Zm31.43-17.5a13.9,13.9,0,0,1-3,4.33,12.5,12.5,0,0,1-2.67,2l-.46-1.22a10.91,10.91,0,0,0,2.15-1.75A11.71,11.71,0,0,0,43,24.83a13.1,13.1,0,0,0,.76-4.55,12.66,12.66,0,0,0-1-4.46,11.73,11.73,0,0,0-6.38-6.09,8,8,0,0,0-.79-.25,6,6,0,0,1,4.34-.69,13.23,13.23,0,0,1,1.91,1.66A13.34,13.34,0,0,1,44.76,15a15.35,15.35,0,0,1,.92,5.23A14.87,14.87,0,0,1,44.51,25.38Z"/></g></g></svg>